<svg width="261" height="131" viewBox="0 0 261 131" fill="none" xmlns="http://www.w3.org/2000/svg">
<rect x="35.6066" y="77" width="27.8553" height="15" rx="6" transform="rotate(45 35.6066 77)" fill="#D9D9D9"/>
<rect x="58.6066" y="73" width="51.1899" height="15" rx="6" transform="rotate(45 58.6066 73)" fill="#D9D9D9"/>
<rect x="174.607" y="5" width="32.8051" height="15" rx="6" transform="rotate(45 174.607 5)" fill="#D9D9D9"/>
<rect x="94.6066" y="3" width="110.587" height="15" rx="6" transform="rotate(45 94.6066 3)" fill="#D9D9D9"/>
<rect x="144.607" width="43.4117" height="15" rx="6" transform="rotate(45 144.607 0)" fill="#D9D9D9"/>
<rect x="118.607" width="63.2107" height="15" rx="6" transform="rotate(45 118.607 0)" fill="#D9D9D9"/>
<rect x="76.6066" y="64" width="77.3528" height="15" rx="6" transform="rotate(45 76.6066 64)" fill="#D9D9D9"/>
<rect x="76.6066" y="38" width="114.122" height="15" rx="6" transform="rotate(45 76.6066 38)" fill="#D9D9D9"/>
<rect x="65.6066" width="169.984" height="15" rx="6" transform="rotate(45 65.6066 0)" fill="#D9D9D9"/>
<path d="M27.1352 75.4333L22.3743 80.1942L6.94652 64.7665L11.9184 59.7946C13.4149 58.298 15.0044 57.3263 16.6868 56.8793C18.3642 56.4273 20.0616 56.4926 21.7792 57.0752C23.4917 57.6527 25.1465 58.74 26.7435 60.337C28.3506 61.9441 29.4479 63.6139 30.0355 65.3465C30.618 67.0741 30.6733 68.7967 30.2012 70.5142C29.7241 72.2267 28.7021 73.8664 27.1352 75.4333ZM22.5852 76.6687L25.3574 73.8966C26.633 72.621 27.4441 71.3177 27.7906 69.9869C28.1371 68.656 28.0618 67.3302 27.5646 66.0094C27.0674 64.6886 26.1911 63.4005 24.9356 62.1449C23.6901 60.8995 22.4145 60.0306 21.1087 59.5385C19.798 59.0413 18.4973 58.9559 17.2066 59.2824C15.9109 59.6038 14.6604 60.3671 13.4551 61.5724L10.472 64.5555L22.5852 76.6687Z" fill="white"/>
<path d="M228.76 40.8532L227.103 39.1959L238.674 27.6251L240.331 29.2824L235.48 34.1337L249.25 47.9042L247.382 49.7724L233.611 36.0019L228.76 40.8532Z" fill="white"/>
<path d="M210.071 55.3491L211.939 53.4809L222.154 63.6958C223.209 64.7504 223.902 65.9406 224.233 67.2664C224.565 68.5822 224.519 69.9281 224.098 71.3042C223.671 72.6752 222.852 73.9659 221.642 75.1762C220.432 76.3865 219.141 77.2051 217.77 77.632C216.394 78.0538 215.045 78.1015 213.725 77.7751C212.404 77.4386 211.216 76.7431 210.161 75.6884L199.947 65.4736L201.815 63.6054L211.879 73.6696C212.632 74.4229 213.468 74.9276 214.387 75.1837C215.301 75.4348 216.233 75.4223 217.182 75.1461C218.131 74.8598 219.035 74.2873 219.894 73.4285C220.753 72.5697 221.325 71.6658 221.612 70.7166C221.893 69.7624 221.906 68.8308 221.649 67.9218C221.393 67.0028 220.889 66.1666 220.135 65.4133L210.071 55.3491Z" fill="white"/>
<path d="M170.947 93.302L173.176 91.0722L191.226 98.6354L191.406 98.4546L183.843 80.4053L186.073 78.1755L201.501 93.6033L199.753 95.351L188.032 83.6295L187.881 83.7802L194.781 100.323L193.094 102.01L176.551 95.1099L176.4 95.2606L188.122 106.982L186.374 108.73L170.947 93.302Z" fill="white"/>
<path d="M47.3743 54.3658L31.9465 38.938L41.2574 29.6271L42.9147 31.2844L35.472 38.7271L40.6849 43.94L47.6455 36.9794L49.3028 38.6367L42.3422 45.5973L47.5852 50.8403L55.1485 43.2771L56.8057 44.9344L47.3743 54.3658Z" fill="white"/>
</svg>
